<svg version="1.1" xmlns="http://www.w3.org/2000/svg" xmlns:xlink="http://www.w3.org/1999/xlink" width="403.98518" height="150.6414" viewBox="0,0,403.98518,150.6414"><defs><linearGradient x1="471.92044" y1="186.5919" x2="202.03222" y2="186.5919" gradientUnits="userSpaceOnUse" id="color-1"><stop offset="0" stop-color="#000000" stop-opacity="0.18431"/><stop offset="1" stop-color="#000000" stop-opacity="0"/></linearGradient></defs><g transform="translate(-118.05731,-111.01476)"><g data-paper-data="{&quot;isPaintingLayer&quot;:true}" fill-rule="nonzero" stroke-linecap="butt" stroke-linejoin="miter" stroke-miterlimit="10" stroke-dasharray="" stroke-dashoffset="0" style="mix-blend-mode: normal"><path d="M121.05731,114.01476h397.98518c0,0 0,115.84355 0,127.65149c0,1.68079 -0.49322,10.54966 -6.7865,13.88521c-6.18867,3.2801 -10.06923,3.1047 -11.60918,3.1047c-16.44407,0 -379.5895,-144.64139 -379.5895,-144.64139z" fill="#828282" stroke="#828282" stroke-width="6"/><path d="M485.26387,228.6929l13.2157,30.34351c0,0 -339.51807,0 -353.06915,0c-1.53996,0 -11.37793,-0.20486 -17.5666,-3.48496c-6.29329,-3.33555 -6.78651,-12.20441 -6.78651,-13.88521c0,-11.80793 0,-127.65149 0,-127.65149h397.98518v128.90697z" data-paper-data="{&quot;index&quot;:null}" fill="#c7c7c7" stroke="#828282" stroke-width="5"/><path d="M121.05731,114.01476h397.98518c0,0 0,115.84355 0,127.65149c0,1.68079 -0.49322,10.54966 -6.7865,13.88521c-6.18867,3.2801 -16.02665,3.48496 -17.5666,3.48496c-16.44407,0 -373.63208,-145.02165 -373.63208,-145.02165z" fill="#333333" stroke="none" stroke-width="0"/><path d="M485.26387,228.6929l13.2157,30.34351c0,0 -339.51807,0 -353.06915,0c-1.53996,0 -11.37793,-0.20486 -17.5666,-3.48496c-6.29329,-3.33555 -6.78651,-12.20441 -6.78651,-13.88521c0,-11.80793 0,-127.65149 0,-127.65149h397.98518v128.90697z" data-paper-data="{&quot;index&quot;:null}" fill="#333333" stroke="none" stroke-width="0"/><path d="M141.72698,114.07627h377.28898c0,0 0.27269,114.68661 -0.38604,130.35505c-0.1383,3.28945 -1.48187,8.40263 -5.55962,11.06635c-4.07775,2.66372 -4.02976,3.27549 -15.87936,3.36297c-65.53847,0.48387 -355.46397,0.24689 -355.46397,0.24689z" fill="url(#color-1)" stroke="none" stroke-width="0"/></g></g></svg>