<svg version="1.1" xmlns="http://www.w3.org/2000/svg" xmlns:xlink="http://www.w3.org/1999/xlink" width="674.59551" height="467.32011" viewBox="0,0,674.59551,467.32011"><defs><linearGradient x1="-9.67487" y1="143.27023" x2="297.48981" y2="143.27023" gradientUnits="userSpaceOnUse" id="color-1"><stop offset="0" stop-color="#000000"/><stop offset="1" stop-color="#000000" stop-opacity="0"/></linearGradient><linearGradient x1="-9.67487" y1="143.27023" x2="297.48981" y2="143.27023" gradientUnits="userSpaceOnUse" id="color-2"><stop offset="0" stop-color="#ffffff"/><stop offset="1" stop-color="#ffffff" stop-opacity="0"/></linearGradient><linearGradient x1="305.83388" y1="459.32011" x2="305.83388" y2="152.15543" gradientUnits="userSpaceOnUse" id="color-3"><stop offset="0" stop-color="#000000"/><stop offset="1" stop-color="#000000" stop-opacity="0"/></linearGradient><linearGradient x1="305.83388" y1="459.32011" x2="305.83388" y2="152.15543" gradientUnits="userSpaceOnUse" id="color-4"><stop offset="0" stop-color="#ffffff"/><stop offset="1" stop-color="#ffffff" stop-opacity="0"/></linearGradient></defs><g transform="translate(10.5,7.5)"><g data-paper-data="{&quot;isPaintingLayer&quot;:true}" fill-rule="nonzero" stroke-linejoin="miter" stroke-miterlimit="10" stroke-dasharray="" stroke-dashoffset="0" style="mix-blend-mode: normal"><path d="M-10.5,368.5v-376h671v376z" fill="#212121" stroke="none" stroke-width="0" stroke-linecap="butt"/><path d="M421.39017,308.38018v-59.90784h59.90783v59.90784z" fill-opacity="0.04314" fill="#000000" stroke="none" stroke-width="0" stroke-linecap="butt"/><path d="M569.24731,351.78264v-59.90784h59.90783v59.90784z" fill-opacity="0.04314" fill="#000000" stroke="none" stroke-width="0" stroke-linecap="butt"/><path d="M565.40707,183.57988v-59.90784h59.90784v59.90784z" fill-opacity="0.04314" fill="#000000" stroke="none" stroke-width="0" stroke-linecap="butt"/><path d="M333.07988,179.36329v-59.90784h59.90784v59.90784z" fill-opacity="0.04314" fill="#000000" stroke="none" stroke-width="0" stroke-linecap="butt"/><path d="M245.14593,347.18971v-59.90783h59.90784v59.90783z" fill-opacity="0.04314" fill="#000000" stroke="none" stroke-width="0" stroke-linecap="butt"/><path d="M462.89555,87.98079v-59.90783h59.90784v59.90783z" fill-opacity="0.04314" fill="#000000" stroke="none" stroke-width="0" stroke-linecap="butt"/><path d="M143.40246,229.3172v-59.90783h59.90784v59.90783z" fill-opacity="0.04314" fill="#000000" stroke="none" stroke-width="0" stroke-linecap="butt"/><path d="M26.28265,349.52458v-59.90784h59.90783v59.90784z" fill-opacity="0.04314" fill="#000000" stroke="none" stroke-width="0" stroke-linecap="butt"/><path d="M46.25192,126.02227v-59.90783h59.90784v59.90783z" fill-opacity="0.04314" fill="#000000" stroke="none" stroke-width="0" stroke-linecap="butt"/><path d="M197.18126,77.25883v-59.90783h59.90783v59.90783z" fill-opacity="0.04314" fill="#000000" stroke="none" stroke-width="0" stroke-linecap="butt"/><path d="M-8.25281,79.72753h671.34832" fill="none" stroke="#ffffff" stroke-width="2" stroke-linecap="round"/><path d="M-9.67487,143.27023h307.16469" fill="url(#color-1)" stroke="url(#color-2)" stroke-width="1" stroke-linecap="round"/><path d="M305.83388,459.32011l0,-307.16469" fill="url(#color-3)" stroke="url(#color-4)" stroke-width="1" stroke-linecap="round"/></g></g></svg>