<svg version="1.1" xmlns="http://www.w3.org/2000/svg" xmlns:xlink="http://www.w3.org/1999/xlink" width="50.40521" height="49.45832" viewBox="0,0,50.40521,49.45832"><g transform="translate(-294.78761,-154.78887)"><g data-paper-data="{&quot;isPaintingLayer&quot;:true}" fill="none" fill-rule="nonzero" stroke="#ffffff" stroke-width="4" stroke-linecap="butt" stroke-linejoin="miter" stroke-miterlimit="10" stroke-dasharray="" stroke-dashoffset="0" style="mix-blend-mode: normal"><path d="M296.78586,196.98466c-0.3689,-8.8021 0.2867,-30.3206 0.2867,-35.18551c0,-1.89763 0.37551,-2.53535 1.41316,-3.72559c1.03765,-1.19024 1.34728,-1.28469 2.95478,-1.28469c4.7308,0 27.84938,-0.67742 36.24174,-0.36662c1.83997,0.06814 2.93386,0.35322 4.09742,1.6513c1.16356,1.29808 1.41316,2.71355 1.41316,4.4964c0,4.77697 0.08549,25.49881 -0.2467,34.17797c-0.08519,2.22567 -0.32525,2.98436 -1.68033,4.10569c-1.35508,1.12133 -2.30115,0.89928 -4.36793,0.89928c-4.95648,0 -25.64774,0.73485 -34.4361,0.49504c-2.45088,-0.06688 -3.97603,-1.39432 -3.97603,-1.39432c0,0 -1.60288,-1.55477 -1.69987,-3.86895z"/></g></g></svg>