<svg version="1.1" xmlns="http://www.w3.org/2000/svg" xmlns:xlink="http://www.w3.org/1999/xlink" width="674.17214" height="376" viewBox="0,0,674.17214,376"><g transform="translate(10.07663,7.07663)"><g data-paper-data="{&quot;isPaintingLayer&quot;:true}" fill-rule="nonzero" stroke-linejoin="miter" stroke-miterlimit="10" stroke-dasharray="" stroke-dashoffset="0" style="mix-blend-mode: normal"><path d="M-10.07663,368.92337v-376h671v376z" fill="#212121" stroke="none" stroke-width="0" stroke-linecap="butt"/><path d="M421.39017,308.38018v-59.90784h59.90783v59.90784z" fill-opacity="0.04314" fill="#000000" stroke="none" stroke-width="0" stroke-linecap="butt"/><path d="M569.24731,351.78264v-59.90784h59.90783v59.90784z" fill-opacity="0.04314" fill="#000000" stroke="none" stroke-width="0" stroke-linecap="butt"/><path d="M565.40707,183.57988v-59.90784h59.90784v59.90784z" fill-opacity="0.04314" fill="#000000" stroke="none" stroke-width="0" stroke-linecap="butt"/><path d="M333.92662,179.36329v-59.90784h59.90784v59.90784z" fill-opacity="0.04314" fill="#000000" stroke="none" stroke-width="0" stroke-linecap="butt"/><path d="M245.14593,347.18971v-59.90783h59.90784v59.90783z" fill-opacity="0.04314" fill="#000000" stroke="none" stroke-width="0" stroke-linecap="butt"/><path d="M462.89555,87.98079v-59.90783h59.90784v59.90783z" fill-opacity="0.04314" fill="#000000" stroke="none" stroke-width="0" stroke-linecap="butt"/><path d="M143.40246,229.3172v-59.90783h59.90784v59.90783z" fill-opacity="0.04314" fill="#000000" stroke="none" stroke-width="0" stroke-linecap="butt"/><path d="M26.28265,349.52458v-59.90784h59.90783v59.90784z" fill-opacity="0.04314" fill="#000000" stroke="none" stroke-width="0" stroke-linecap="butt"/><path d="M46.25192,126.02227v-59.90783h59.90784v59.90783z" fill-opacity="0.04314" fill="#000000" stroke="none" stroke-width="0" stroke-linecap="butt"/><path d="M197.18126,77.25883v-59.90783h59.90783v59.90783z" fill-opacity="0.04314" fill="#000000" stroke="none" stroke-width="0" stroke-linecap="butt"/><path d="M-8.25281,79.72753h671.34832" fill="none" stroke="#ffffff" stroke-width="2" stroke-linecap="round"/></g></g></svg>